<svg width="220" height="34" viewBox="0 0 220 34" fill="none" xmlns="http://www.w3.org/2000/svg">
<g clip-path="url(#clip0_646_7891)">
<path fill-rule="evenodd" clip-rule="evenodd" d="M0 27.3102C4.81 28.7302 15.23 26.9702 18.68 28.5802C21.03 29.6902 22.23 31.4302 22.56 34.0102C20.67 28.7802 9.38 32.6302 4.46 30.9502C3.22 30.5202 1.52 28.8502 0 27.3202" fill="#FFFAE3"/>
<path fill-rule="evenodd" clip-rule="evenodd" d="M20.32 0.82019C10.4 11.8202 7.86 16.6502 15.59 23.2302C9.87 16.8802 21.07 11.9302 21.62 6.61019C21.75 5.27019 21.47 3.41019 20.32 0.82019Z" fill="#FFFAE3"/>
<path fill-rule="evenodd" clip-rule="evenodd" d="M23.03 8.34021C14.8 17.4802 12.7 21.4902 19.1 26.9502C14.36 21.6702 23.65 17.5602 24.1 13.1502C24.22 12.0302 23.98 10.4902 23.03 8.34021Z" fill="#FFFAE3"/>
<path fill-rule="evenodd" clip-rule="evenodd" d="M24.03 16.0103C18.29 22.3803 16.82 25.1803 21.3 28.9803C17.99 25.3003 24.47 22.4403 24.78 19.3603C24.86 18.5803 24.7 17.5103 24.03 16.0103Z" fill="#FFFAE3"/>
<path fill-rule="evenodd" clip-rule="evenodd" d="M41.41 26.1401C37.15 26.9001 27.89 25.9601 24.83 26.8201C22.74 27.4001 21.68 28.3401 21.38 29.7101C23.06 26.9201 33.08 28.9701 37.45 28.0701C38.55 27.8501 40.07 26.9501 41.41 26.1401Z" fill="#FFFAE3"/>
<path d="M48.48 7.3502C48.08 7.2802 47.79 7.19021 47.62 7.1002V5.6002H48.09L48.41 6.50021C48.56 6.67021 48.74 6.79021 48.96 6.8502C49.18 6.9102 49.44 6.9502 49.73 6.9502C50.06 6.9502 50.34 6.8602 50.57 6.6802C50.8 6.50021 50.91 6.2402 50.91 5.9002C50.91 5.6302 50.8 5.3902 50.57 5.1702C50.34 4.9602 50.01 4.73021 49.57 4.49021C49.14 4.26021 48.79 4.05021 48.53 3.87021C48.27 3.69021 48.05 3.48021 47.89 3.24021C47.72 3.00021 47.64 2.72021 47.64 2.40021C47.64 2.03021 47.75 1.72021 47.96 1.47021C48.17 1.21021 48.44 1.02021 48.77 0.900205C49.1 0.770205 49.43 0.710205 49.77 0.710205C50.11 0.710205 50.46 0.740205 50.81 0.810205C51.15 0.870205 51.41 0.950205 51.56 1.03021V2.30021H51.06L50.71 1.46021C50.62 1.38021 50.49 1.33021 50.31 1.28021C50.13 1.24021 49.95 1.22021 49.77 1.22021C49.48 1.22021 49.22 1.30021 48.99 1.45021C48.76 1.60021 48.64 1.84021 48.64 2.15021C48.64 2.46021 48.77 2.72021 49.02 2.94021C49.27 3.16021 49.66 3.41021 50.17 3.68021C50.54 3.88021 50.85 4.0602 51.1 4.24021C51.35 4.42021 51.56 4.6202 51.72 4.8502C51.88 5.0802 51.96 5.3502 51.96 5.6502C51.96 6.2502 51.74 6.7002 51.3 7.0102C50.86 7.3202 50.31 7.4702 49.64 7.4702C49.26 7.4702 48.86 7.4302 48.46 7.3602L48.48 7.3502Z" fill="#FFFAE3"/>
<path d="M53.93 6.76025V1.36025L53.22 1.28025V0.760254H55.73V1.28025L55.02 1.36025V3.80025H58V1.35025L57.29 1.28025V0.760254H59.78V1.28025L59.08 1.36025V6.76025L59.83 6.91025V7.35025H57.25V6.91025L58 6.76025V4.40025H55.02V6.76025L55.76 6.90025V7.35025H53.22V6.90025L53.93 6.76025Z" fill="#FFFAE3"/>
<path d="M65.56 1.1002C65.97 1.3702 66.18 1.8102 66.18 2.4402C66.18 2.9002 66.06 3.3002 65.81 3.6402C65.56 3.9702 65.21 4.2202 64.77 4.3702C64.79 4.3702 64.83 4.4002 64.91 4.4502C65.08 4.5602 65.24 4.7302 65.39 4.9402C65.54 5.16019 65.72 5.4702 65.94 5.8502C66.1 6.1402 66.23 6.3602 66.33 6.5102C66.43 6.6602 66.52 6.7502 66.61 6.7802L67.11 6.9102V7.3602H65.67C65.58 7.3602 65.48 7.2702 65.37 7.0902C65.26 6.9102 65.13 6.6302 64.95 6.2502C64.71 5.7102 64.49 5.2902 64.29 4.9902C64.1 4.6902 63.89 4.5402 63.66 4.5402H63.02V6.7702L63.88 6.9102V7.3602H61.17V6.9102L61.94 6.7702V1.4102L61.26 1.3302V0.760195H62.32C62.44 0.760195 62.56 0.760195 62.67 0.760195C62.78 0.760195 62.88 0.750195 62.97 0.740195C63.33 0.720195 63.61 0.700195 63.82 0.700195C64.56 0.700195 65.13 0.830195 65.55 1.1002H65.56ZM63.49 1.2502C63.26 1.2602 63.1 1.2802 63.02 1.3102V3.9902C63.15 4.0102 63.36 4.0202 63.65 4.0202C64.13 4.0202 64.48 3.9102 64.73 3.6802C64.97 3.4502 65.1 3.0802 65.1 2.5702C65.1 2.1402 64.99 1.8102 64.76 1.5802C64.53 1.3502 64.17 1.2402 63.69 1.2502C63.64 1.2502 63.58 1.2502 63.5 1.2502H63.49Z" fill="#FFFAE3"/>
<path d="M68.83 6.76025V1.36025L68.06 1.28025V0.760254H70.65V1.28025L69.91 1.36025V6.76025L70.7 6.90025V7.35025H68.05V6.90025L68.83 6.76025Z" fill="#FFFAE3"/>
<path d="M72.74 6.76025L73.11 1.42025L72.3 1.34025V0.760254H74.6L75.94 4.93025L76.11 5.64025L76.3 4.92025L77.59 0.760254H79.7V1.34025L78.91 1.42025L79.37 6.76025L80.08 6.91025V7.35025H77.65V6.91025L78.36 6.76025L78.05 3.05025L78.02 1.48025L77.85 2.14025L76.16 7.41025H75.78L74.23 2.93025C74.09 2.53025 73.93 2.04025 73.75 1.46025L73.72 2.81025L73.54 6.74025L74.34 6.89025V7.34025H72.01V6.89025L72.74 6.75025V6.76025Z" fill="#FFFAE3"/>
<path d="M81.48 6.76025L83.65 0.760254H84.62L86.7 6.76025L87.37 6.91025V7.35025H84.88V6.91025L85.53 6.76025L85.18 5.65025H82.73L82.36 6.75025L83.04 6.90025V7.35025H80.88V6.90025L81.47 6.76025H81.48ZM84.36 3.04025L83.99 1.80025L82.94 5.05025H85L84.36 3.04025Z" fill="#FFFAE3"/>
<path d="M88.97 6.7602V1.3602L88.31 1.2802V0.760195H89.53C89.76 0.760195 90.05 0.750195 90.38 0.720195C90.46 0.720195 90.57 0.720195 90.71 0.700195C90.86 0.700195 90.99 0.700195 91.11 0.700195C92.17 0.700195 92.97 0.980195 93.51 1.5302C94.05 2.0802 94.32 2.8602 94.32 3.8802C94.32 4.5902 94.18 5.2202 93.89 5.7502C93.6 6.2802 93.21 6.6902 92.71 6.9802C92.21 7.2602 91.64 7.4102 90.99 7.4102C90.85 7.4102 90.64 7.4102 90.35 7.3902C90.1 7.3702 89.83 7.3602 89.54 7.3602H88.29V6.9102L88.97 6.7702V6.7602ZM90.92 6.8602C91.02 6.8602 91.11 6.8602 91.16 6.8602C91.54 6.8402 91.89 6.7202 92.19 6.5002C92.49 6.2802 92.73 5.9602 92.91 5.5502C93.09 5.1402 93.17 4.6702 93.17 4.1302C93.17 3.1802 92.98 2.4702 92.59 1.9902C92.2 1.5102 91.65 1.2602 90.94 1.2602C90.57 1.2602 90.27 1.2902 90.03 1.3502V6.7302C90.27 6.8202 90.56 6.8702 90.91 6.8702L90.92 6.8602Z" fill="#FFFAE3"/>
<path d="M102.63 1.1002C103.04 1.3702 103.25 1.8102 103.25 2.4402C103.25 2.9002 103.13 3.3002 102.88 3.6402C102.63 3.9702 102.28 4.2202 101.84 4.3702C101.86 4.3702 101.9 4.4002 101.98 4.4502C102.15 4.5602 102.31 4.7302 102.46 4.9402C102.61 5.16019 102.79 5.4702 103.01 5.8502C103.17 6.1402 103.3 6.3602 103.4 6.5102C103.5 6.6602 103.59 6.7502 103.68 6.7802L104.18 6.9102V7.3602H102.74C102.65 7.3602 102.55 7.2702 102.44 7.0902C102.33 6.9102 102.2 6.6302 102.02 6.2502C101.78 5.7102 101.56 5.2902 101.36 4.9902C101.17 4.6902 100.96 4.5402 100.73 4.5402H100.09V6.7702L100.95 6.9102V7.3602H98.24V6.9102L99.01 6.7702V1.4102L98.33 1.3302V0.760195H99.39C99.51 0.760195 99.63 0.760195 99.74 0.760195C99.85 0.760195 99.95 0.750195 100.04 0.740195C100.4 0.720195 100.68 0.700195 100.89 0.700195C101.63 0.700195 102.2 0.830195 102.62 1.1002H102.63ZM100.56 1.2502C100.33 1.2602 100.17 1.2802 100.09 1.3102V3.9902C100.22 4.0102 100.43 4.0202 100.72 4.0202C101.2 4.0202 101.55 3.9102 101.8 3.6802C102.04 3.4502 102.17 3.0802 102.17 2.5702C102.17 2.1402 102.06 1.8102 101.83 1.5802C101.6 1.3502 101.24 1.2402 100.76 1.2502C100.71 1.2502 100.65 1.2502 100.57 1.2502H100.56Z" fill="#FFFAE3"/>
<path d="M105.35 6.76025L107.51 0.760254H108.48L110.56 6.76025L111.23 6.91025V7.35025H108.74V6.91025L109.39 6.76025L109.04 5.65025H106.59L106.22 6.75025L106.9 6.90025V7.35025H104.74V6.90025L105.33 6.76025H105.35ZM108.22 3.04025L107.85 1.80025L106.8 5.05025H108.86L108.23 3.04025H108.22Z" fill="#FFFAE3"/>
<path d="M114.77 1.28025L114.12 1.36025V5.02025C114.12 5.56025 114.12 6.01025 114.09 6.37025C114.07 6.73025 114.04 7.03025 113.98 7.28025C113.89 7.62025 113.72 7.91025 113.48 8.16025C113.24 8.41025 112.97 8.61025 112.66 8.76025C112.35 8.91025 112.05 8.99025 111.74 9.02025L111.5 8.68025C112.18 8.44025 112.62 8.08025 112.83 7.59025C112.91 7.35025 112.97 7.09025 112.99 6.80025C113.02 6.51025 113.03 6.12025 113.03 5.64025V1.36025L112.35 1.28025V0.760254H114.77V1.28025Z" fill="#FFFAE3"/>
<path d="M120.23 0.770195C120.47 0.820195 120.73 0.870195 120.99 0.940195L121.2 0.990195L121.12 2.3602H120.52L120.26 1.6002C120.12 1.4902 119.97 1.4102 119.8 1.3602C119.63 1.3102 119.4 1.2902 119.1 1.2902C118.71 1.2902 118.36 1.4002 118.05 1.6202C117.74 1.8402 117.5 2.1502 117.32 2.5602C117.14 2.9602 117.05 3.4302 117.05 3.9602C117.05 4.4902 117.13 4.9802 117.3 5.4302C117.47 5.8802 117.71 6.2402 118.03 6.5102C118.35 6.7802 118.74 6.9102 119.19 6.9102C119.82 6.9102 120.23 6.7602 120.43 6.4702L120.71 5.7502H121.21V7.0702C121.12 7.0702 120.96 7.1102 120.75 7.1802C120.48 7.2702 120.21 7.3402 119.95 7.3902C119.69 7.4402 119.38 7.4702 119.03 7.4702C118.42 7.4702 117.88 7.3402 117.4 7.0702C116.92 6.8002 116.55 6.43019 116.29 5.9402C116.02 5.4602 115.89 4.9002 115.89 4.2702C115.89 3.5802 116.05 2.9602 116.37 2.4202C116.69 1.8802 117.12 1.4502 117.66 1.1502C118.2 0.850195 118.79 0.700195 119.43 0.700195C119.72 0.700195 120 0.720195 120.24 0.770195H120.23Z" fill="#FFFAE3"/>
<path d="M123.2 6.76025V1.36025L122.49 1.28025V0.760254H125V1.28025L124.29 1.36025V3.80025H127.27V1.35025L126.56 1.28025V0.760254H129.05V1.28025L128.35 1.36025V6.76025L129.1 6.91025V7.35025H126.52V6.91025L127.27 6.76025V4.40025H124.29V6.76025L125.03 6.90025V7.35025H122.49V6.90025L123.2 6.76025Z" fill="#FFFAE3"/>
<path d="M130.71 6.76025L132.88 0.760254H133.85L135.93 6.76025L136.6 6.91025V7.35025H134.11V6.91025L134.76 6.76025L134.41 5.65025H131.96L131.59 6.75025L132.27 6.90025V7.35025H130.11V6.90025L130.7 6.76025H130.71ZM133.58 3.04025L133.21 1.80025L132.16 5.05025H134.22L133.59 3.04025H133.58Z" fill="#FFFAE3"/>
<path d="M144.09 1.33025L143.43 1.41025V7.35025H142.26L139.64 3.13025L139.1 1.96025V6.75025L139.94 6.90025V7.35025H137.65V6.90025L138.36 6.75025V1.42025L137.68 1.34025V0.760254H139.43L142.16 5.33025L142.67 6.44025V1.42025L141.96 1.33025V0.760254H144.08V1.33025H144.09Z" fill="#FFFAE3"/>
<path d="M146.14 6.7602V1.3602L145.48 1.2802V0.760195H146.7C146.93 0.760195 147.22 0.750195 147.55 0.720195C147.63 0.720195 147.74 0.720195 147.88 0.700195C148.03 0.700195 148.16 0.700195 148.28 0.700195C149.34 0.700195 150.14 0.980195 150.68 1.5302C151.22 2.0802 151.49 2.8602 151.49 3.8802C151.49 4.5902 151.35 5.2202 151.06 5.7502C150.77 6.2802 150.38 6.6902 149.88 6.9802C149.38 7.2602 148.81 7.4102 148.16 7.4102C148.02 7.4102 147.81 7.4102 147.52 7.3902C147.27 7.3702 147 7.3602 146.71 7.3602H145.46V6.9102L146.14 6.7702V6.7602ZM148.1 6.8602C148.2 6.8602 148.29 6.8602 148.34 6.8602C148.72 6.8402 149.07 6.7202 149.37 6.5002C149.67 6.2802 149.91 5.9602 150.09 5.5502C150.27 5.1402 150.35 4.6702 150.35 4.1302C150.35 3.1802 150.16 2.4702 149.77 1.9902C149.38 1.5102 148.83 1.2602 148.12 1.2602C147.75 1.2602 147.45 1.2902 147.21 1.3502V6.7302C147.45 6.8202 147.74 6.8702 148.09 6.8702L148.1 6.8602Z" fill="#FFFAE3"/>
<path d="M157.21 1.1002C157.63 1.3702 157.83 1.8102 157.83 2.4402C157.83 2.9002 157.71 3.3002 157.46 3.6402C157.21 3.9702 156.86 4.2202 156.42 4.3702C156.44 4.3702 156.48 4.4002 156.56 4.4502C156.73 4.5602 156.89 4.7302 157.04 4.9402C157.19 5.16019 157.37 5.4702 157.59 5.8502C157.75 6.1402 157.88 6.3602 157.98 6.5102C158.08 6.6602 158.17 6.7502 158.26 6.7802L158.76 6.9102V7.3602H157.32C157.23 7.3602 157.13 7.2702 157.02 7.0902C156.91 6.9102 156.78 6.6302 156.6 6.2502C156.36 5.7102 156.14 5.2902 155.94 4.9902C155.75 4.6902 155.54 4.5402 155.31 4.5402H154.67V6.7702L155.53 6.9102V7.3602H152.82V6.9102L153.59 6.7702V1.4102L152.91 1.3302V0.760195H153.97C154.09 0.760195 154.21 0.760195 154.32 0.760195C154.43 0.760195 154.53 0.750195 154.62 0.740195C154.98 0.720195 155.26 0.700195 155.47 0.700195C156.21 0.700195 156.78 0.830195 157.2 1.1002H157.21ZM155.15 1.2502C154.92 1.2602 154.76 1.2802 154.68 1.3102V3.9902C154.81 4.0102 155.03 4.0202 155.32 4.0202C155.8 4.0202 156.15 3.9102 156.4 3.6802C156.64 3.4502 156.77 3.0802 156.77 2.5702C156.77 2.1402 156.65 1.8102 156.43 1.5802C156.2 1.3502 155.84 1.2402 155.35 1.2502C155.3 1.2502 155.24 1.2502 155.16 1.2502H155.15Z" fill="#FFFAE3"/>
<path d="M159.93 6.76025L162.1 0.760254H163.07L165.15 6.76025L165.82 6.91025V7.35025H163.33V6.91025L163.98 6.76025L163.63 5.65025H161.18L160.81 6.75025L161.49 6.90025V7.35025H159.33V6.90025L159.92 6.76025H159.93ZM162.8 3.04025L162.43 1.80025L161.38 5.05025H163.44L162.8 3.04025Z" fill="#FFFAE3"/>
<path d="M55.47 14.7202L53.88 14.9102V23.8302C53.88 25.1602 53.86 26.2502 53.82 27.1102C53.78 27.9702 53.69 28.7002 53.54 29.3102C53.31 30.1302 52.91 30.8502 52.33 31.4602C51.75 32.0702 51.09 32.5602 50.34 32.9102C49.59 33.2602 48.84 33.4702 48.09 33.5402L47.5 32.7102C49.15 32.1302 50.23 31.2502 50.74 30.0602C50.94 29.4802 51.07 28.8402 51.13 28.1302C51.19 27.4202 51.23 26.4902 51.23 25.3102V14.8902L49.58 14.7002V13.4302H55.47V14.7002V14.7202Z" fill="#FFFAE3"/>
<path d="M61.57 17.9002V28.1902L63.18 28.4202V29.5002H57.4V28.4202L59.03 28.1902V20.4602L57.63 19.4402V18.6802L60.95 17.6802L61.56 17.8902L61.57 17.9002ZM61.39 12.5702C61.66 12.8502 61.8 13.2202 61.8 13.6802C61.8 14.2002 61.61 14.6302 61.23 14.9702C60.85 15.3102 60.4 15.4802 59.9 15.4802C59.46 15.4802 59.08 15.3402 58.77 15.0602C58.46 14.7802 58.29 14.4102 58.29 13.9602C58.29 13.4702 58.49 13.0402 58.88 12.6902C59.28 12.3402 59.71 12.1602 60.19 12.1602C60.71 12.1602 61.11 12.3002 61.39 12.5702Z" fill="#FFFAE3"/>
<path d="M63.86 19.3002V17.9402H68.92V19.3002L67.78 19.5502L69.83 24.8002L70.66 27.4002L71.42 24.8602L73.22 19.5202L71.91 19.2902V17.9302H76.44V19.2902L75.3 19.5702L71.23 29.6702H69.26L64.88 19.5102L63.86 19.3002Z" fill="#FFFAE3"/>
<path d="M85.92 18.6002C86.67 19.2102 87.04 20.2202 87.04 21.6502V28.4302H88.35V29.2802C88.1 29.4402 87.76 29.5602 87.35 29.6502C86.94 29.7402 86.54 29.7902 86.14 29.7902C85.63 29.7902 85.26 29.6902 85.04 29.4802C84.81 29.2802 84.69 28.9402 84.68 28.4802C83.9 29.3602 82.81 29.7902 81.4 29.7902C80.68 29.7902 80.04 29.6502 79.47 29.3802C78.9 29.1102 78.47 28.7202 78.16 28.2302C77.85 27.7402 77.69 27.1802 77.69 26.5602C77.69 25.6302 78.04 24.8602 78.73 24.2502C79.42 23.6402 80.28 23.2002 81.31 22.9302C82.34 22.6602 83.38 22.5202 84.42 22.5202V21.8802C84.42 20.9202 84.2 20.2502 83.76 19.8702C83.32 19.4902 82.67 19.3002 81.81 19.3002C81.34 19.3002 80.81 19.3802 80.22 19.5302C79.63 19.6902 79.11 19.8802 78.68 20.1202L78.19 18.9502C78.67 18.5602 79.36 18.2502 80.25 18.0302C81.14 17.8102 81.97 17.7002 82.72 17.7002C84.09 17.7002 85.15 18.0002 85.9 18.6102L85.92 18.6002ZM81.59 24.3402C80.75 24.7202 80.33 25.3302 80.33 26.1602C80.33 27.5302 81.06 28.2102 82.51 28.2102C82.85 28.2102 83.2 28.1402 83.56 28.0002C83.92 27.8602 84.21 27.6902 84.42 27.4902L84.44 23.7602C83.38 23.7602 82.43 23.9502 81.59 24.3302V24.3402Z" fill="#FFFAE3"/>
<path d="M91.62 28.1902V20.3802L90.18 19.5102V18.6202L93.34 17.6902L93.91 17.8802V19.3802C94.38 18.9302 94.99 18.5402 95.75 18.2102C96.51 17.8802 97.22 17.7102 97.89 17.6902C98.68 17.6502 99.33 17.7402 99.85 17.9802C100.36 18.2102 100.75 18.6202 101 19.2002C101.54 18.7602 102.19 18.4002 102.97 18.1202C103.75 17.8402 104.48 17.7002 105.17 17.7002C106.41 17.7002 107.3 18.1002 107.83 18.9002C108.36 19.7002 108.62 20.9402 108.62 22.6402V28.2102L110.25 28.4402V29.5202H104.68V28.4402L106.01 28.2102V23.0402C106.01 22.1602 105.95 21.4802 105.84 20.9902C105.73 20.5002 105.51 20.1302 105.19 19.8902C104.87 19.6502 104.41 19.5302 103.8 19.5302C103.39 19.5302 102.97 19.6002 102.55 19.7302C102.13 19.8602 101.72 20.0502 101.34 20.2902C101.47 20.8102 101.53 21.5302 101.53 22.4502V28.2102L103.08 28.4402V29.5202H97.41V28.4402L98.93 28.1902V22.9202C98.93 22.1002 98.87 21.4502 98.75 20.9602C98.63 20.4702 98.41 20.1102 98.1 19.8802C97.79 19.6502 97.34 19.5302 96.77 19.5302C96.38 19.5302 95.95 19.6002 95.5 19.7402C95.05 19.8802 94.62 20.1002 94.23 20.4002V28.2102L95.69 28.4402V29.5202H90.25V28.4402L91.61 28.2102L91.62 28.1902Z" fill="#FFFAE3"/>
<path d="M120.21 18.6002C120.96 19.2102 121.33 20.2202 121.33 21.6502V28.4302H122.64V29.2802C122.39 29.4402 122.05 29.5602 121.64 29.6502C121.23 29.7402 120.83 29.7902 120.43 29.7902C119.92 29.7902 119.55 29.6902 119.33 29.4802C119.1 29.2802 118.98 28.9402 118.97 28.4802C118.19 29.3602 117.1 29.7902 115.69 29.7902C114.97 29.7902 114.33 29.6502 113.76 29.3802C113.19 29.1102 112.76 28.7202 112.45 28.2302C112.14 27.7402 111.98 27.1802 111.98 26.5602C111.98 25.6302 112.33 24.8602 113.02 24.2502C113.71 23.6402 114.57 23.2002 115.6 22.9302C116.63 22.6602 117.67 22.5202 118.71 22.5202V21.8802C118.71 20.9202 118.49 20.2502 118.05 19.8702C117.61 19.4902 116.96 19.3002 116.1 19.3002C115.63 19.3002 115.1 19.3802 114.51 19.5302C113.92 19.6902 113.4 19.8802 112.97 20.1202L112.48 18.9502C112.96 18.5602 113.65 18.2502 114.54 18.0302C115.43 17.8102 116.26 17.7002 117.01 17.7002C118.38 17.7002 119.44 18.0002 120.19 18.6102L120.21 18.6002ZM115.88 24.3402C115.04 24.7202 114.62 25.3302 114.62 26.1602C114.62 27.5302 115.35 28.2102 116.8 28.2102C117.14 28.2102 117.49 28.1402 117.85 28.0002C118.21 27.8602 118.5 27.6902 118.71 27.4902L118.73 23.7602C117.67 23.7602 116.72 23.9502 115.88 24.3302V24.3402Z" fill="#FFFAE3"/>
<path d="M128.49 17.9002V28.1902L130.1 28.4202V29.5002H124.32V28.4202L125.95 28.1902V20.4602L124.55 19.4402V18.6802L127.87 17.6802L128.48 17.8902L128.49 17.9002ZM128.31 12.5702C128.59 12.8502 128.72 13.2202 128.72 13.6802C128.72 14.2002 128.53 14.6302 128.15 14.9702C127.77 15.3102 127.32 15.4802 126.82 15.4802C126.38 15.4802 126 15.3402 125.69 15.0602C125.38 14.7802 125.21 14.4102 125.21 13.9602C125.21 13.4702 125.41 13.0402 125.8 12.6902C126.2 12.3402 126.63 12.1602 127.11 12.1602C127.63 12.1602 128.03 12.3002 128.31 12.5702Z" fill="#FFFAE3"/>
<path d="M135.64 17.9402H139.11V19.4402H135.7V24.1602C135.7 25.2502 135.72 26.0402 135.77 26.5502C135.82 27.0602 135.93 27.4402 136.09 27.6802C136.25 27.9202 136.52 28.0502 136.91 28.0502C137.21 28.0502 137.57 28.0002 138 27.9002C138.43 27.8002 138.73 27.6902 138.9 27.5802L139.32 28.6002C138.97 28.9502 138.44 29.2302 137.74 29.4402C137.04 29.6402 136.37 29.7502 135.74 29.7502C134.84 29.7502 134.18 29.4902 133.77 28.9702C133.36 28.4502 133.16 27.6202 133.16 26.4902V19.4402H131.59V18.5302C132.25 18.3602 132.69 18.2302 132.91 18.1402C133.13 18.0502 133.32 17.8702 133.49 17.6002C133.7 17.2302 133.99 16.4202 134.36 15.1702H135.63V17.9402H135.64Z" fill="#FFFAE3"/>
<path d="M142.74 28.1902V20.3802L141.28 19.5102V18.6202L144.41 17.6902L145 17.8802V19.6402C145.23 19.1702 145.69 18.7302 146.39 18.3202C147.09 17.9002 147.73 17.7002 148.33 17.7002C148.87 17.7002 149.21 17.7302 149.37 17.7802V20.3202C148.86 20.0702 148.25 19.9402 147.55 19.9402C146.67 19.9402 145.95 20.1302 145.37 20.5102V28.1502L148.1 28.4302V29.5102H141.22V28.4302L142.74 28.2002V28.1902Z" fill="#FFFAE3"/>
<path d="M155.19 17.9002V28.1902L156.8 28.4202V29.5002H151.02V28.4202L152.65 28.1902V20.4602L151.25 19.4402V18.6802L154.57 17.6802L155.18 17.8902L155.19 17.9002ZM155.01 12.5702C155.29 12.8502 155.42 13.2202 155.42 13.6802C155.42 14.2002 155.23 14.6302 154.85 14.9702C154.47 15.3102 154.02 15.4802 153.52 15.4802C153.08 15.4802 152.7 15.3402 152.39 15.0602C152.08 14.7802 151.91 14.4102 151.91 13.9602C151.91 13.4702 152.11 13.0402 152.5 12.6902C152.9 12.3402 153.33 12.1602 153.81 12.1602C154.33 12.1602 154.73 12.3002 155.01 12.5702Z" fill="#FFFAE3"/>
<path d="M168.91 12.9402V28.4202H170.33V29.3302C170.08 29.4702 169.72 29.5902 169.25 29.6902C168.78 29.7902 168.3 29.8402 167.81 29.8402C167.36 29.8402 167.03 29.7602 166.84 29.5902C166.64 29.4202 166.51 29.1202 166.46 28.7002C166.15 28.9802 165.69 29.2302 165.07 29.4502C164.45 29.6702 163.78 29.7802 163.05 29.7802C162.19 29.7802 161.41 29.5502 160.7 29.0802C159.99 28.6102 159.43 27.9402 159.02 27.0602C158.6 26.1802 158.4 25.1302 158.4 23.9202C158.4 22.7102 158.68 21.6202 159.24 20.6602C159.8 19.7002 160.55 18.9502 161.51 18.4102C162.46 17.8702 163.51 17.5902 164.65 17.5902C165.28 17.5902 165.84 17.6602 166.32 17.8002V14.7102L164.07 14.2602V13.1402L168.37 12.7002L168.92 12.9502L168.91 12.9402ZM162.75 19.3402C162.24 19.6902 161.83 20.2202 161.51 20.9102C161.19 21.6002 161.03 22.4402 161.03 23.4302C161.03 24.4202 161.16 25.2402 161.43 25.9702C161.7 26.7002 162.07 27.2702 162.54 27.6602C163.01 28.0502 163.55 28.2502 164.14 28.2502C164.56 28.2502 164.97 28.1902 165.36 28.0802C165.75 27.9702 166.07 27.8002 166.32 27.5902V19.4602C165.83 19.0202 165.17 18.8002 164.35 18.8002C163.78 18.8002 163.25 18.9802 162.74 19.3302L162.75 19.3402Z" fill="#FFFAE3"/>
<path d="M173.76 28.1902V14.7002L172.11 14.2502V13.1302L175.84 12.6902L176.37 12.9002L176.35 17.6402L176.24 19.1902C176.8 18.7102 177.45 18.3402 178.17 18.0802C178.89 17.8202 179.57 17.6902 180.2 17.6902C181.15 17.6902 181.87 17.8902 182.37 18.2802C182.87 18.6802 183.21 19.2602 183.4 20.0402C183.59 20.8202 183.67 21.8502 183.65 23.1502V28.1902L185.13 28.4202V29.5002H179.39V28.4202L181.04 28.1902V23.9102C181.04 22.8102 181 21.9602 180.91 21.3602C180.83 20.7602 180.62 20.2902 180.3 19.9602C179.97 19.6302 179.47 19.4602 178.8 19.4602C177.84 19.4602 177.03 19.7002 176.36 20.1802V28.1802L177.67 28.4102V29.4902H172.23V28.4102L173.75 28.1802L173.76 28.1902Z" fill="#FFFAE3"/>
<path d="M195.23 18.6002C195.98 19.2102 196.35 20.2202 196.35 21.6502V28.4302H197.66V29.2802C197.41 29.4402 197.07 29.5602 196.66 29.6502C196.25 29.7402 195.85 29.7902 195.45 29.7902C194.94 29.7902 194.57 29.6902 194.35 29.4802C194.12 29.2802 194 28.9402 193.99 28.4802C193.21 29.3602 192.12 29.7902 190.71 29.7902C189.99 29.7902 189.35 29.6502 188.78 29.3802C188.21 29.1102 187.78 28.7202 187.47 28.2302C187.16 27.7402 187 27.1802 187 26.5602C187 25.6302 187.35 24.8602 188.04 24.2502C188.73 23.6402 189.59 23.2002 190.62 22.9302C191.65 22.6602 192.69 22.5202 193.73 22.5202V21.8802C193.73 20.9202 193.51 20.2502 193.07 19.8702C192.63 19.4902 191.98 19.3002 191.12 19.3002C190.65 19.3002 190.12 19.3802 189.53 19.5302C188.94 19.6902 188.42 19.8802 187.99 20.1202L187.5 18.9502C187.98 18.5602 188.67 18.2502 189.56 18.0302C190.45 17.8102 191.28 17.7002 192.03 17.7002C193.4 17.7002 194.46 18.0002 195.21 18.6102L195.23 18.6002ZM190.9 24.3402C190.06 24.7202 189.64 25.3302 189.64 26.1602C189.64 27.5302 190.37 28.2102 191.82 28.2102C192.16 28.2102 192.51 28.1402 192.87 28.0002C193.23 27.8602 193.52 27.6902 193.73 27.4902L193.75 23.7602C192.69 23.7602 191.74 23.9502 190.9 24.3302V24.3402Z" fill="#FFFAE3"/>
<path d="M200.93 28.1902V20.3802L199.49 19.5102V18.6202L202.65 17.6902L203.22 17.8802V19.3802C203.69 18.9302 204.3 18.5402 205.06 18.2102C205.82 17.8802 206.53 17.7102 207.2 17.6902C207.99 17.6502 208.64 17.7402 209.16 17.9802C209.67 18.2102 210.06 18.6202 210.31 19.2002C210.85 18.7602 211.5 18.4002 212.28 18.1202C213.06 17.8402 213.79 17.7002 214.48 17.7002C215.72 17.7002 216.61 18.1002 217.14 18.9002C217.67 19.7002 217.93 20.9402 217.93 22.6402V28.2102L219.56 28.4402V29.5202H213.99V28.4402L215.32 28.2102V23.0402C215.32 22.1602 215.26 21.4802 215.15 20.9902C215.04 20.5002 214.82 20.1302 214.5 19.8902C214.18 19.6502 213.72 19.5302 213.11 19.5302C212.7 19.5302 212.28 19.6002 211.86 19.7302C211.44 19.8602 211.03 20.0502 210.65 20.2902C210.78 20.8102 210.84 21.5302 210.84 22.4502V28.2102L212.39 28.4402V29.5202H206.72V28.4402L208.24 28.1902V22.9202C208.24 22.1002 208.18 21.4502 208.06 20.9602C207.94 20.4702 207.72 20.1102 207.41 19.8802C207.1 19.6502 206.65 19.5302 206.08 19.5302C205.69 19.5302 205.26 19.6002 204.81 19.7402C204.36 19.8802 203.93 20.1002 203.54 20.4002V28.2102L205 28.4402V29.5202H199.56V28.4402L200.92 28.2102L200.93 28.1902Z" fill="#FFFAE3"/>
</g>
<defs>
<clipPath id="clip0_646_7891">
<rect width="219.56" height="33.3" fill="white" transform="translate(0 0.700195)"/>
</clipPath>
</defs>
</svg>
