<svg width="19" height="19" viewBox="0 0 19 19" fill="none" xmlns="http://www.w3.org/2000/svg">
<path d="M17.7117 8.04437C17.8281 7.26362 17.7899 6.46432 17.5972 5.69577C17.3426 4.68049 16.8183 3.71899 16.0244 2.92503C15.2304 2.13107 14.2689 1.6068 13.2537 1.35223C12.4851 1.15951 11.6858 1.12135 10.905 1.23773" stroke="#FFFAE3" stroke-width="2" stroke-linecap="round" stroke-linejoin="round"/>
<path d="M14.2171 7.67457C14.3418 6.83821 14.0822 5.95562 13.4384 5.31179C12.7945 4.66797 11.912 4.40835 11.0756 4.53302" stroke="#FFFAE3" stroke-width="2" stroke-linecap="round" stroke-linejoin="round"/>
<path d="M5.09471 2.60596C5.42919 2.60596 5.73738 2.78739 5.89977 3.07983L7.02609 5.10873C7.17356 5.37438 7.18051 5.6957 7.0446 5.96747L5.95953 8.13762C5.95953 8.13762 6.27398 9.75432 7.58999 11.0703C8.90605 12.3863 10.5173 12.6954 10.5173 12.6954L12.6871 11.6105C12.9591 11.4745 13.2806 11.4815 13.5463 11.6293L15.581 12.7605C15.8732 12.9229 16.0544 13.231 16.0544 13.5652V15.9011C16.0544 17.0906 14.9495 17.9498 13.8224 17.5695C11.5075 16.7884 7.91421 15.3012 5.63669 13.0236C3.35913 10.7461 1.87194 7.15282 1.09087 4.83797C0.710564 3.71086 1.56971 2.60596 2.75923 2.60596H5.09471Z" fill="#FFFAE3" stroke="#FFFAE3" stroke-width="1.5" stroke-linejoin="round"/>
</svg>
