<svg width="138" height="52" viewBox="0 0 138 52" fill="none" xmlns="http://www.w3.org/2000/svg">
<g clip-path="url(#clip0_803_1593)">
<path d="M55.0414 30.8057C55.1412 35.2826 54.9682 39.7664 55.4113 44.2623H49.4492C49.4598 44.1987 49.4518 44.1432 49.4758 44.1161C50.64 42.8219 51.1522 41.2353 51.3132 39.543C51.5008 37.5719 51.6565 35.5899 51.6858 33.6107C51.743 29.7565 51.7377 25.9009 51.6871 22.0453C51.6672 20.5195 51.5048 18.9898 51.3265 17.4722C51.1549 16.0114 50.5934 14.7104 49.4026 13.6829C49.5662 13.6545 49.6647 13.6206 49.7618 13.622C52.4708 13.6599 55.1798 13.6531 57.8861 13.7587C59.8606 13.8359 61.7818 14.2583 63.5235 15.279C65.7003 16.5529 66.8392 18.5241 67.0175 21.0326C67.2836 24.7583 65.3317 27.8652 61.8098 29.395C60.9582 29.7646 60.0508 29.9988 59.1128 30.3142C59.3576 30.7447 59.6118 31.2538 59.9191 31.7262C63.6233 37.4135 64.9791 41.0444 69.8741 45.8084C71.4601 47.3517 73.2617 48.7948 75.4012 49.2917C76.7862 49.6139 78.2472 49.9022 79.615 49.5096C79.6708 49.4934 79.7653 49.951 79.74 50.0227C79.6801 50.1933 79.0748 50.3693 78.9164 50.437C78.3376 50.6861 77.7376 50.8851 77.1229 51.0205C75.8948 51.2912 74.6255 51.2993 73.3907 51.0665C65.4994 49.5854 63.3838 43.381 59.4867 37.1292C58.3025 35.2285 57.0984 33.2912 55.8051 31.4812C55.6148 31.2145 55.3793 30.983 55.1638 30.7353C55.1225 30.7583 55.0826 30.7799 55.0414 30.8029V30.8057ZM55.0826 28.9821C56.2269 28.8007 57.3153 28.7019 58.369 28.4473C61.6568 27.65 63.5634 25.0561 63.3811 21.7271C63.2321 19.0101 61.8204 17.0782 59.3723 16.2632C58.1934 15.8706 56.968 15.9234 55.7492 15.895C55.3022 15.8842 55.1505 16.006 55.1492 16.4771C55.1319 20.4762 55.0933 24.4753 55.0613 28.4744C55.0613 28.5841 55.0706 28.6937 55.0826 28.9821Z" fill="#E3E1CE"/>
<path d="M5.56561 44.0796H0C0.40049 43.0521 0.785013 42.0557 1.17486 41.0633C3.19194 35.9216 5.21036 30.7799 7.22877 25.6382C8.25461 23.0227 9.28577 20.4086 10.293 17.7849C10.3768 17.5669 10.3728 17.2434 10.2757 17.0336C9.72618 15.8571 9.13542 14.6996 8.54733 13.511C8.61253 13.5029 8.72562 13.4799 8.83872 13.4785C10.1373 13.4758 11.4372 13.4907 12.7345 13.4677C13.0804 13.4609 13.1762 13.5854 13.2547 13.9076C13.9573 16.8264 15.0723 19.6017 16.2099 22.3607C18.4997 27.9113 20.8361 33.4428 23.1965 38.9623C23.9389 40.6978 24.8157 42.3738 25.63 44.0742H21.2938C20.4729 41.9528 19.6626 39.8788 18.8736 37.7966C18.7352 37.4311 18.5529 37.2781 18.1524 37.2754C14.7476 37.2578 11.3441 37.2104 7.93928 37.1915C7.21148 37.1874 6.48368 37.247 5.75721 37.3011C5.62948 37.3106 5.42191 37.4135 5.39929 37.5096C5.07331 38.8648 4.72471 40.2186 4.48123 41.5913C4.32289 42.4889 4.67948 43.2687 5.37668 43.8643C5.43123 43.9117 5.4738 43.974 5.56561 44.0796ZM17.9129 35.0146C15.9278 30.0245 13.9626 25.0873 11.9987 20.1513L11.8298 20.1852C9.92044 25.1103 7.78227 29.9406 5.99936 34.9875C9.99761 35.2353 13.9001 35.3341 17.9129 35.0146Z" fill="#E3E1CE"/>
<path d="M138 44.0837H133.609C133.113 42.7218 132.635 41.3815 132.135 40.0494C131.83 39.2371 131.506 38.4316 131.152 37.6424C131.081 37.484 130.843 37.3134 130.673 37.3039C126.494 37.0792 122.313 37.0792 118.134 37.2999C117.997 37.3066 117.78 37.4231 117.745 37.5354C117.329 38.9014 116.864 40.2565 116.815 41.7119C116.782 42.6825 117.176 43.4176 117.983 44.0715H112.363C112.749 43.0792 113.123 42.1139 113.501 41.15C115.993 34.7954 118.486 28.442 120.978 22.0873C121.541 20.6523 122.116 19.2213 122.656 17.7769C122.739 17.5562 122.733 17.2326 122.635 17.0228C122.085 15.8477 121.495 14.6916 120.908 13.507C120.982 13.4989 121.098 13.4772 121.213 13.4759C122.495 13.4732 123.779 13.4867 125.062 13.4664C125.412 13.461 125.536 13.5666 125.622 13.9226C126.37 17.0133 127.57 19.9456 128.774 22.8685C131.001 28.2714 133.278 33.6541 135.578 39.0259C136.31 40.7344 137.18 42.3806 138 44.0824V44.0837ZM118.28 34.9835C122.356 35.2353 126.274 35.3382 130.272 35.0133C128.284 30.0178 126.319 25.0806 124.354 20.1419C124.298 20.1541 124.242 20.1663 124.186 20.1785C122.229 25.0846 120.272 29.9894 118.28 34.9835Z" fill="#E3E1CE"/>
<path d="M106.324 12.6554C106.783 13.8318 107.266 14.9839 107.684 16.159C108.217 17.6563 108.698 19.1739 109.203 20.682C109.31 20.9975 109.343 21.3183 108.996 21.474C108.638 21.6337 108.341 21.4618 108.153 21.1328C107.708 20.353 107.294 19.5543 106.835 18.784C105.955 17.3111 104.815 16.1414 103.143 15.6202C101.9 15.233 100.621 15.1613 99.3347 15.21C96.4488 15.3197 93.8676 16.2213 91.7653 18.3129C90.1927 19.8765 89.2027 21.7975 88.6878 23.946C87.7498 27.8652 87.8656 31.756 89.3331 35.5358C90.3949 38.2691 92.0847 40.5218 94.8362 41.6306C98.2956 43.025 101.696 42.8598 104.818 40.6125C106.166 39.6419 107.008 38.2177 107.766 36.7515C107.816 36.6554 107.87 36.562 107.957 36.4022C108.658 37.247 109.326 38.0525 109.999 38.8634C107.934 41.8066 105.33 43.8779 101.74 44.4058C98.08 44.9433 94.5315 44.659 91.2438 42.7502C88.3579 41.0742 86.4193 38.5642 85.2444 35.4397C84.0523 32.2691 83.7369 28.9835 84.3623 25.645C85.2112 21.1152 87.3945 17.4424 91.3036 14.9704C93.6906 13.4609 96.3264 12.8558 99.1125 13.0317C100.561 13.1238 102.009 13.3364 103.443 13.576C104.505 13.7533 105.43 13.6599 106.147 12.7529C106.174 12.719 106.227 12.7082 106.323 12.6554H106.324Z" fill="#E3E1CE"/>
<path d="M34.1574 44.0498H29.446C29.5883 43.159 29.7932 42.2953 29.8518 41.4207C29.9835 39.4753 30.1112 37.5232 30.1166 35.5751C30.1299 30.6067 30.0966 25.6396 30.0341 20.6712C30.0181 19.3702 29.8704 18.0652 29.7028 16.7723C29.5471 15.5742 29.285 14.3896 28.2166 13.4568C28.5106 13.4568 28.6769 13.4568 28.8432 13.4568C33.1049 13.4568 37.3679 13.4568 41.6296 13.4568C41.7241 13.4568 41.8199 13.4568 41.9144 13.4555C42.7765 13.442 42.8018 13.4135 42.7486 12.5485C42.7406 12.4131 42.7486 12.275 42.7486 12.0245C42.9096 12.2357 43.0067 12.3522 43.0919 12.4767C44.5954 14.6522 46.1002 16.8278 47.5984 19.0074C47.7235 19.1901 47.8871 19.3973 47.8938 19.5976C47.9004 19.821 47.8073 20.1554 47.649 20.2475C47.4986 20.3355 47.15 20.2434 46.989 20.1067C46.6763 19.8413 46.4328 19.492 46.1641 19.1753C44.5382 17.2569 42.5876 15.8707 40.053 15.6202C38.608 15.4781 37.1457 15.5146 35.6901 15.5092C35.0621 15.5065 34.4328 15.6026 33.7529 15.6581C33.3817 19.5584 33.2978 23.4343 33.2845 27.3603C35.3881 27.5647 37.4504 27.7786 39.4835 27.1491C40.492 26.8377 40.7967 26.3707 40.7967 25.3066C40.7967 25.0169 40.7861 24.7244 40.8047 24.4361C40.8287 24.0909 40.9817 23.8458 41.3662 23.8607C41.7374 23.8743 41.8465 24.1315 41.8478 24.4523C41.8545 25.5976 41.8532 26.7429 41.8532 27.8883C41.8532 29.372 41.8598 30.8571 41.8465 32.3409C41.8452 32.5548 41.8026 32.8066 41.6829 32.9677C41.599 33.08 41.309 33.1531 41.1892 33.0895C41.0229 33.0002 40.8499 32.7809 40.822 32.5954C40.7648 32.2001 40.7847 31.7912 40.798 31.3892C40.8193 30.7624 40.5293 30.3481 39.9891 30.0922C38.9247 29.5886 37.7738 29.571 36.6401 29.5182C35.5504 29.4681 34.4581 29.5074 33.3657 29.5074C33.3657 32.0322 33.3404 34.4433 33.3724 36.8531C33.4056 39.2533 33.5387 41.6495 34.1547 44.0498H34.1574Z" fill="#E3E1CE"/>
<path d="M78.6264 43.4555H73.8657C74.7 38.4763 74.68 33.4699 74.6707 28.4704C74.6614 23.4681 74.7678 18.4523 73.879 13.4785H78.6011C77.5433 20.8905 77.5526 38.8743 78.6264 43.4555Z" fill="#E3E1CE"/>
<path d="M55.8969 6.00423H54.8884V2.92706L53.4394 4.65721L51.9905 2.92706V6.00423H50.9819V0.234375L53.4394 3.24791L55.8969 0.234375V6.00423Z" fill="#E3E1CE"/>
<path d="M58.1642 6.00428V0.363037H59.1727V6.00428H58.1642Z" fill="#E3E1CE"/>
<path d="M64.9685 4.38509C64.9685 5.28265 64.2287 6.06785 63.1098 6.06785C62.0547 6.06785 61.3215 5.2664 61.1885 5.04167L61.7712 4.3201C62.1651 4.84131 62.6694 5.1053 63.1098 5.1053C63.622 5.1053 63.96 4.76009 63.96 4.43247C63.96 3.95187 63.6367 3.66352 63.2042 3.49565C62.0706 3.05431 61.5038 2.59808 61.5038 1.71676C61.5038 0.899075 62.2289 0.297992 63.1577 0.297992C63.3306 0.297992 63.9613 0.265501 64.6612 0.923443L64.1103 1.67615C63.8668 1.45142 63.5675 1.25918 63.1417 1.25918C62.8343 1.25918 62.511 1.42705 62.511 1.71541C62.511 2.0525 62.7479 2.2285 63.1417 2.38824C64.0784 2.77272 64.9685 3.1572 64.9685 4.38373V4.38509Z" fill="#E3E1CE"/>
<path d="M70.5115 4.38509C70.5115 5.28265 69.7717 6.06785 68.6527 6.06785C67.5976 6.06785 66.8645 5.2664 66.7314 5.04167L67.3142 4.3201C67.7081 4.84131 68.2123 5.1053 68.6527 5.1053C69.165 5.1053 69.5029 4.76009 69.5029 4.43247C69.5029 3.95187 69.1796 3.66352 68.7472 3.49565C67.6136 3.05431 67.0454 2.59808 67.0454 1.71676C67.0454 0.899075 67.7706 0.297992 68.6993 0.297992C68.8723 0.297992 69.5029 0.265501 70.2028 0.923443L69.652 1.67615C69.4085 1.45142 69.1091 1.25918 68.6833 1.25918C68.376 1.25918 68.0527 1.42705 68.0527 1.71541C68.0527 2.0525 68.2895 2.2285 68.6833 2.38824C69.62 2.77272 70.5102 3.1572 70.5102 4.38373L70.5115 4.38509Z" fill="#E3E1CE"/>
<path d="M72.5272 6.00428V0.363037H73.5358V6.00428H72.5272Z" fill="#E3E1CE"/>
<path d="M81.1584 3.1829C81.1584 4.77767 79.8904 6.06783 78.323 6.06783C76.7557 6.06783 75.4877 4.77767 75.4877 3.1829C75.4877 1.58814 76.757 0.297974 78.323 0.297974C79.8891 0.297974 81.1584 1.58814 81.1584 3.1829ZM80.1512 3.1829C80.1512 2.11747 79.3316 1.25916 78.3244 1.25916C77.3172 1.25916 76.4975 2.11611 76.4975 3.1829C76.4975 4.24969 77.3172 5.10664 78.3244 5.10664C79.3316 5.10664 80.1512 4.24969 80.1512 3.1829Z" fill="#E3E1CE"/>
<path d="M87.0167 0.362985V6.13284L84.1188 2.86344V6.00423H83.1102V0.234375L86.0081 3.50378V0.362985H87.0167Z" fill="#E3E1CE"/>
<path d="M138 4.55977H93.4605L91.4647 1.98486H138V4.55977Z" fill="#E3E1CE"/>
<path d="M44.5395 4.53536H0V1.96045H46.5353L44.5395 4.53536Z" fill="#E3E1CE"/>
</g>
<defs>
<clipPath id="clip0_803_1593">
<rect width="138" height="51" fill="white" transform="translate(0 0.234375)"/>
</clipPath>
</defs>
</svg>
